<svg xmlns="http://www.w3.org/2000/svg" viewBox="0 0 24 24" width="24" height="24" color="currentColor">
  <path d="M9.25 8.09L10.70 6.64L10.70 14L10.72 14.25L10.85 14.61L11 14.82L11.18 15L11.39 15.15L11.62 15.24L11.87 15.29L12.13 15.29L12.50 15.20L12.72 15.08L12.92 14.92L13.08 14.72L13.20 14.50L13.29 14.13L13.30 6.64L15.18 8.50L15.50 8.70L15.75 8.78L16 8.80L16.38 8.74L16.61 8.65L16.92 8.42L17.15 8.11L17.24 7.88L17.29 7.63L17.29 7.37L17.20 7L17.08 6.78L16.92 6.58L12.92 2.58L12.61 2.35L12.38 2.26L12.13 2.21L11.87 2.21L11.62 2.26L11.39 2.35L11.08 2.58L7.08 6.58L6.92 6.78L6.80 7L6.72 7.25L6.70 7.50L6.72 7.75L6.80 8L6.92 8.22L7.08 8.42L7.28 8.58L7.50 8.70L7.75 8.78L8 8.80L8.38 8.74L8.61 8.65L8.82 8.50ZM3.26 17.72L3.33 18.26L3.53 18.91L3.77 19.40L4.16 19.95L4.55 20.34L5.10 20.73L5.59 20.97L6.24 21.17L6.53 21.22L7 21.25L17 21.25L17.51 21.21L17.99 21.12L18.46 20.95L18.90 20.73L19.30 20.46L19.63 20.17L19.96 19.80L20.23 19.40L20.37 19.14L20.56 18.68L20.71 18.01L20.75 17.52L20.75 13L20.72 12.78L20.62 12.58L20.48 12.42L20.29 12.31L20.07 12.25L19.85 12.26L19.58 12.38L19.42 12.52L19.31 12.71L19.25 13L19.25 17.49L19.23 17.79L19.17 18.08L19.08 18.36L18.95 18.62L18.78 18.87L18.59 19.09L18.37 19.28L18.12 19.45L17.86 19.58L17.58 19.67L17.29 19.73L16.99 19.75L7.01 19.75L6.71 19.73L6.42 19.67L6.14 19.58L5.88 19.45L5.52 19.19L5.22 18.87L4.98 18.49L4.83 18.08L4.77 17.79L4.75 17.49L4.75 12.93L4.66 12.65L4.53 12.47L4.29 12.31L4.07 12.25L3.78 12.28L3.58 12.38L3.38 12.58L3.26 12.85Z" fill="currentColor" fill-rule="evenodd"/>
</svg>