<svg xmlns="http://www.w3.org/2000/svg" viewBox="0 0 24 24" width="24" height="24" color="currentColor">
  <path d="M11.87 5.51L11.26 5.16L10.26 4.73L9.17 4.38L8 4.13L6.75 3.94L5.42 3.82L4 3.76L2.25 3.75L2.25 19.25L4.43 19.27L5.75 19.35L6.58 19.43L7.36 19.54L8.45 19.75L9.43 20.03L10.31 20.37L11.09 20.78L12 21.42L12.91 20.78L13.69 20.37L14.57 20.03L15.55 19.75L16.64 19.54L17.42 19.43L18.25 19.35L19.57 19.27L21.75 19.25L21.75 3.75L20 3.76L18.58 3.82L17.25 3.94L16 4.13L14.83 4.38L14.10 4.60L13.07 5.01L12.43 5.33L12 5.59ZM11.05 6.50L12.95 6.50L12.95 20.50L11.05 20.50Z" fill="currentColor" fill-rule="evenodd"/>
</svg>