<svg xmlns="http://www.w3.org/2000/svg" viewBox="0 0 24 24" width="24" height="24" color="currentColor">
  <path d="M4.75 2.75L4.36 2.78L3.92 2.89L3.62 3.02L3.33 3.19L3.03 3.44L2.73 3.78L2.52 4.12L2.37 4.48L2.27 4.92L2.25 5.25L2.25 14.75L2.27 15.08L2.37 15.52L2.55 15.94L2.76 16.27L2.98 16.52L3.23 16.74L3.62 16.98L3.98 17.13L4.36 17.22L4.69 17.25L10.06 17.25L11.05 16.14L11.05 15.55L12.95 15.55L12.95 16.14L13.94 17.25L19.25 17.25L19.64 17.22L20.02 17.13L20.44 16.95L20.77 16.74L21.02 16.52L21.24 16.27L21.48 15.88L21.63 15.52L21.72 15.14L21.75 14.81L21.75 5.25L21.72 4.86L21.64 4.53L21.48 4.12L21.24 3.73L21.02 3.48L20.77 3.26L20.38 3.02L20.02 2.87L19.64 2.78L19.25 2.75ZM11.07 10.27L8 13.34L6.66 12L10.33 8.33L10.47 8.21L10.63 8.12L10.81 8.07L11.09 8.05L11.27 8.09L11.44 8.16L11.59 8.26L13.38 9.68L16.40 6.16L17.84 7.40L14.22 11.62L14.09 11.74L13.85 11.88L13.68 11.93L13.50 11.95L13.32 11.93L13.06 11.84L12.91 11.74Z" fill="currentColor" fill-rule="evenodd"/>
</svg>